<svg xmlns="http://www.w3.org/2000/svg" version="1.1" xmlns:xlink="http://www.w3.org/1999/xlink" xmlns:svgjs="http://svgjs.dev/svgjs" width="2000" height="1247" viewBox="0 0 2000 1247"><g transform="matrix(1,0,0,1,-1.2121212121212466,0.504858299595071)"><svg viewBox="0 0 396 247" data-background-color="#ffffff" preserveAspectRatio="xMidYMid meet" height="1247" width="2000" xmlns="http://www.w3.org/2000/svg" xmlns:xlink="http://www.w3.org/1999/xlink"><g id="tight-bounds" transform="matrix(1,0,0,1,0.2400000000000091,-0.09999999999999432)"><svg viewBox="0 0 395.52 247.2" height="247.2" width="395.52"><g><svg></svg></g><g><svg viewBox="0 0 395.52 247.2" height="247.2" width="395.52"><g transform="matrix(1,0,0,1,102.53226525198937,47.215199999999996)"><svg viewBox="0 0 190.45546949602124 152.7696" height="152.7696" width="190.45546949602124"><g><svg viewBox="0 0 190.45546949602124 152.7696" height="152.7696" width="190.45546949602124"><g><svg viewBox="0 0 190.45546949602124 152.7696" height="152.7696" width="190.45546949602124"><g><svg viewBox="0 0 190.45546949602124 152.7696" height="152.7696" width="190.45546949602124"><g id="textblocktransform"><svg viewBox="0 0 190.45546949602124 152.7696" height="152.7696" width="190.45546949602124" id="textblock"><g><svg viewBox="0 0 190.45546949602124 152.7696" height="152.7696" width="190.45546949602124"><g transform="matrix(1,0,0,1,0,0)"><svg width="190.45546949602124" viewBox="1.76 -36.82 45.89 36.82" height="152.7696" data-palette-color="#ff0000"><path d="M27.73-31.23L27.73-31.23Q28.39-29.54 28.39-27.39 28.39-25.24 27.72-23.49 27.05-21.73 25.78-20.46L25.78-20.46Q23.36-18.04 18.68-17.07L18.68-17.07 19.12-17.87 28.76-3.22 30.47-2.47 33.91-2.08 33.91 0 25.54 0 14.55-17.55 16.6-16.67 10.06-16.67 10.06-2.64 13.72-2.08 13.72 0 1.76 0 1.76-2.08 5.54-2.64 5.54-34.18 1.76-34.74 1.76-36.82 13.79-36.82Q25.49-36.82 27.73-31.23ZM14.04-33.86L10.06-33.86 10.06-19.31 13.67-19.31Q21.58-19.31 23.24-23.93L23.24-23.93Q23.75-25.32 23.75-26.94 23.75-28.56 23.29-29.86 22.83-31.15 21.73-32.03L21.73-32.03Q19.46-33.86 14.04-33.86L14.04-33.86ZM35.69-34.74L35.69-36.82 47.65-36.82 47.65-34.74 43.97-34.18 43.97-2.64 47.65-2.08 47.65 0 35.69 0 35.69-2.08 39.45-2.64 39.45-34.18 35.69-34.74Z" opacity="1" transform="matrix(1,0,0,1,0,0)" fill="#ff0000" class="wordmark-text-0" data-fill-palette-color="primary" id="text-0"></path></svg></g></svg></g></svg></g></svg></g></svg></g></svg></g></svg></g><g><path d="M218.828 0c30.402 0 58.24 10.976 79.768 29.183l-11.147 0c-19.26-14.022-42.974-22.294-68.621-22.295-25.647 0-49.361 8.272-68.621 22.295l-11.147 0c21.528-18.206 49.366-29.183 79.768-29.183zM342.428 123.6c0 37.056-16.307 70.303-42.136 92.956v-9.379c21.744-21.198 35.247-50.811 35.247-83.577 0-32.766-13.503-62.379-35.247-83.577v-9.379c25.829 22.654 42.135 55.901 42.136 92.956zM218.828 247.2c-30.402 0-58.24-10.976-79.768-29.183l11.147 0c19.26 14.022 42.974 22.294 68.621 22.295 25.647 0 49.361-8.272 68.621-22.295l11.147 0c-21.528 18.206-49.366 29.183-79.768 29.183z" fill="#ff0000" stroke="transparent" data-fill-palette-color="tertiary"></path></g></svg></g><defs></defs></svg><rect width="395.52" height="247.2" fill="none" stroke="none" visibility="hidden"></rect></g></svg></g></svg>